# xmcd
#
# Track frame offsets: 
#        150
#        14880
#        31885
#        53772
#        72342
#        89735
#        104595
#        123277
#        141322
#        157362
#        176440
#
# Disc length: 2562 seconds
#
# Revision: 3
# Processed by: cddbd v1.5.2PL0 Copyright (c) Steve Scherf et al.
# Submitted via: ExactAudioCopy v0.99pb4
#
DISCID=a40a000b
DTITLE=Big House - Travelin' Kind
DYEAR=1998
DGENRE=Blues/Coutemporary
TTITLE0=There'll Be No Teardops Tonight
TTITLE1=Faith
TTITLE2=Tender Dreams
TTITLE3=Ain't Slept In Our Bed
TTITLE4=Never Again
TTITLE5=Second Hand Love
TTITLE6=Trouble
TTITLE7=Highway Of No Return
TTITLE8=This Far Down
TTITLE9=Travelin' Kind
TTITLE10=Don't Believe Everything You're Told
EXTD=YEAR: 1998
EXTT0=
EXTT1=
EXTT2=
EXTT3=
EXTT4=
EXTT5=
EXTT6=
EXTT7=
EXTT8=
EXTT9=
EXTT10=
PLAYORDER=
